<svg id="Layer_1" data-name="Layer 1" xmlns="http://www.w3.org/2000/svg" viewBox="0 0 660.01 307.6"><defs><style>.cls-1{font-size:148.73px;font-family:Anton-Regular, Anton;}.cls-2{font-size:57.23px;font-family:JoongnajocheStd-L-KSCpc-EUC-H, Joongnajoche OTF;letter-spacing:0.35em;}.cls-3{letter-spacing:0.32em;}.cls-4{letter-spacing:0.35em;}.cls-5{letter-spacing:0.32em;}</style></defs><path d="M206.71,106.61c-.39-1.24-.67-1.73-1.12-3.06-4.24-2.09-13.17-3.66-15.16-8.45,5.12-.44,9.18-.89,13.26-4.63,4.92-4.51,8.11-11.43,9.8-17.8.51-1.92.75-3.88,1.17-5.8.53,1.87,1.84,14.77-.45,15.31,10.21-2.43,19.9-12.62,18.79-23.63-.74-7.27-4.82-17.95-10.34-20.34-20.42-8.84-30.2,8.87-42.7,21.33-14.7-6.26-29.19-5.83-42.42,5.61,2.11-1.83,3.14-7.19,5.27-9.64A26.9,26.9,0,0,1,151.6,49c8.33-4,16.41-4,25.45-4,2.19,0,3.26-5.41,4.32-7.11a31.38,31.38,0,0,1,6.24-7.12,53.85,53.85,0,0,1,16.66-9.33,32.16,32.16,0,0,1,23.61.59c14.56,6,21,18.24,21.79,33.18.87,15.5-7.07,26.64-20,34.41-3.34,2-5.6,2.9-10.94,5.34,5.33,13.9,9.35,26.94,13.48,39.46L130.85,166.31C154.5,144.83,182,132.77,212.37,125" transform="translate(-27.48 -19.48)"/><path d="M79.51,162.13l-9.08-12.94c18.54,7.23,35.42,10.17,53.3-3.57-.87,4.19-.89,6.71-1.9,8.75C112.7,172.8,90.23,182.94,67,179.3c-21.33-3.35-35-17-38.71-38.83-3.78-22,5.16-42,26.13-50.51C68.35,84.33,84,82.61,99,80.2c9.87-1.58,20.1-.81,30.07-2,9.8-1.12,19.47-3.33,31.11-5.41-12,11.24-26,12.61-39.43,15.53-16.2,3.52-32.94,5.52-48.48,10.94-23.31,8.12-30.69,30.49-18.72,51C59,159.69,66.09,163.07,79.51,162.13Z" transform="translate(-27.48 -19.48)"/><path d="M163,99.93l-53.22,37.79C121.41,116.58,139.62,104.64,163,99.93Z" transform="translate(-27.48 -19.48)"/><text class="cls-1" transform="translate(153.16 241.01)">Brazilian</text><text class="cls-2" transform="translate(256.34 297.02)">ki<tspan class="cls-3" x="78.57" y="0">t</tspan><tspan class="cls-4" x="115.71" y="0">c</tspan><tspan class="cls-5" x="161.49" y="0">h</tspan><tspan x="207.33" y="0">en</tspan></text></svg>